<svg width="64" height="10" viewBox="0 0 64 10" fill="none" xmlns="http://www.w3.org/2000/svg">
<path d="M61.6523 7.26562C61.6523 7.13281 61.6172 7.01367 61.5469 6.9082C61.4766 6.80273 61.3438 6.70703 61.1484 6.62109C60.957 6.53125 60.6758 6.44727 60.3047 6.36914C59.9766 6.29883 59.6738 6.21094 59.3965 6.10547C59.1191 6 58.8809 5.87305 58.6816 5.72461C58.4824 5.57227 58.3262 5.39453 58.2129 5.19141C58.1035 4.98438 58.0488 4.74609 58.0488 4.47656C58.0488 4.21484 58.1055 3.96875 58.2188 3.73828C58.332 3.50391 58.4961 3.29883 58.7109 3.12305C58.9258 2.94336 59.1875 2.80273 59.4961 2.70117C59.8047 2.5957 60.1523 2.54297 60.5391 2.54297C61.0781 2.54297 61.541 2.63086 61.9277 2.80664C62.3184 2.98242 62.6172 3.22461 62.8242 3.5332C63.0312 3.83789 63.1348 4.18164 63.1348 4.56445H61.5879C61.5879 4.39648 61.5488 4.24414 61.4707 4.10742C61.3965 3.9707 61.2812 3.86133 61.125 3.7793C60.9688 3.69336 60.7715 3.65039 60.5332 3.65039C60.3184 3.65039 60.1367 3.68555 59.9883 3.75586C59.8438 3.82617 59.7344 3.91797 59.6602 4.03125C59.5859 4.14453 59.5488 4.26953 59.5488 4.40625C59.5488 4.50781 59.5684 4.59961 59.6074 4.68164C59.6504 4.75977 59.7188 4.83203 59.8125 4.89844C59.9062 4.96484 60.0332 5.02539 60.1934 5.08008C60.3574 5.13477 60.5586 5.1875 60.7969 5.23828C61.2695 5.33203 61.6816 5.45703 62.0332 5.61328C62.3887 5.76562 62.666 5.96875 62.8652 6.22266C63.0645 6.47656 63.1641 6.80078 63.1641 7.19531C63.1641 7.47656 63.1035 7.73438 62.9824 7.96875C62.8613 8.19922 62.6855 8.40039 62.4551 8.57227C62.2246 8.74414 61.9492 8.87891 61.6289 8.97656C61.3086 9.07031 60.9473 9.11719 60.5449 9.11719C59.9629 9.11719 59.4707 9.01367 59.0684 8.80664C58.666 8.5957 58.3613 8.33008 58.1543 8.00977C57.9473 7.68555 57.8438 7.34961 57.8438 7.00195H59.3262C59.3379 7.24805 59.4043 7.44531 59.5254 7.59375C59.6465 7.74219 59.7988 7.84961 59.9824 7.91602C60.1699 7.97852 60.3672 8.00977 60.5742 8.00977C60.8086 8.00977 61.0059 7.97852 61.166 7.91602C61.3262 7.84961 61.4473 7.76172 61.5293 7.65234C61.6113 7.53906 61.6523 7.41016 61.6523 7.26562Z" fill="white"/>
<path d="M55.1426 0.46875H56.7539V6.13477C56.7539 6.78711 56.6133 7.33594 56.332 7.78125C56.0508 8.22266 55.668 8.55664 55.1836 8.7832C54.6992 9.00586 54.1484 9.11719 53.5312 9.11719C52.9062 9.11719 52.3496 9.00586 51.8613 8.7832C51.373 8.55664 50.9902 8.22266 50.7129 7.78125C50.4355 7.33594 50.2969 6.78711 50.2969 6.13477V0.46875H51.9082V6.13477C51.9082 6.5332 51.9746 6.85938 52.1074 7.11328C52.2402 7.36328 52.4277 7.54883 52.6699 7.66992C52.9121 7.79102 53.1992 7.85156 53.5312 7.85156C53.8672 7.85156 54.1543 7.79102 54.3926 7.66992C54.6348 7.54883 54.8203 7.36328 54.9492 7.11328C55.0781 6.85938 55.1426 6.5332 55.1426 6.13477V0.46875Z" fill="white"/>
<path d="M47.7363 5.84766H45.3984L44.8125 5.60742C44.1562 5.40039 43.6543 5.08789 43.3066 4.66992C42.959 4.25195 42.7852 3.72266 42.7852 3.08203C42.7852 2.51562 42.9102 2.03906 43.1602 1.65234C43.4141 1.26172 43.7734 0.966797 44.2383 0.767578C44.707 0.568359 45.2617 0.46875 45.9023 0.46875H48.8203V9H47.2031V1.74023H45.9023C45.3906 1.74023 45.0117 1.86719 44.7656 2.12109C44.5195 2.375 44.3965 2.72852 44.3965 3.18164C44.3965 3.49805 44.4512 3.76562 44.5605 3.98438C44.6738 4.20312 44.8398 4.36719 45.0586 4.47656C45.2812 4.58594 45.5566 4.64062 45.8848 4.64062H47.7305L47.7363 5.84766ZM45.9902 5.16797L44.0508 9H42.3105L44.2617 5.16797H45.9902Z" fill="#C50909"/>
<path d="M37.8516 4.01367V9H36.3047V2.66016H37.7578L37.8516 4.01367ZM37.6055 5.60156H37.1484C37.1523 5.14062 37.2148 4.72266 37.3359 4.34766C37.457 3.97266 37.627 3.65039 37.8457 3.38086C38.0684 3.11133 38.332 2.9043 38.6367 2.75977C38.9414 2.61523 39.2812 2.54297 39.6562 2.54297C39.9609 2.54297 40.2363 2.58594 40.4824 2.67188C40.7285 2.75781 40.9395 2.89453 41.1152 3.08203C41.2949 3.26953 41.4316 3.51562 41.5254 3.82031C41.623 4.12109 41.6719 4.49219 41.6719 4.93359V9H40.1133V4.92188C40.1133 4.63281 40.0703 4.4043 39.9844 4.23633C39.9023 4.06836 39.7812 3.94922 39.6211 3.87891C39.4648 3.80859 39.2715 3.77344 39.041 3.77344C38.8027 3.77344 38.5938 3.82227 38.4141 3.91992C38.2383 4.01367 38.0898 4.14453 37.9688 4.3125C37.8516 4.48047 37.7617 4.67383 37.6992 4.89258C37.6367 5.11133 37.6055 5.34766 37.6055 5.60156Z" fill="white"/>
<path d="M29.2617 5.89453V5.77148C29.2617 5.30664 29.3281 4.87891 29.4609 4.48828C29.5938 4.09375 29.7871 3.75195 30.041 3.46289C30.2949 3.17383 30.6055 2.94922 30.9727 2.78906C31.3398 2.625 31.7578 2.54297 32.2266 2.54297C32.7031 2.54297 33.125 2.625 33.4922 2.78906C33.8633 2.94922 34.1758 3.17383 34.4297 3.46289C34.6836 3.75195 34.877 4.09375 35.0098 4.48828C35.1426 4.87891 35.209 5.30664 35.209 5.77148V5.89453C35.209 6.35547 35.1426 6.7832 35.0098 7.17773C34.877 7.56836 34.6836 7.91016 34.4297 8.20312C34.1758 8.49219 33.8652 8.7168 33.498 8.87695C33.1309 9.03711 32.7109 9.11719 32.2383 9.11719C31.7695 9.11719 31.3496 9.03711 30.9785 8.87695C30.6074 8.7168 30.2949 8.49219 30.041 8.20312C29.7871 7.91016 29.5938 7.56836 29.4609 7.17773C29.3281 6.7832 29.2617 6.35547 29.2617 5.89453ZM30.8086 5.77148V5.89453C30.8086 6.17188 30.8359 6.43164 30.8906 6.67383C30.9453 6.91602 31.0293 7.12891 31.1426 7.3125C31.2559 7.49609 31.4023 7.64062 31.582 7.74609C31.7656 7.84766 31.9844 7.89844 32.2383 7.89844C32.4883 7.89844 32.7031 7.84766 32.8828 7.74609C33.0625 7.64062 33.209 7.49609 33.3223 7.3125C33.4395 7.12891 33.5254 6.91602 33.5801 6.67383C33.6348 6.43164 33.6621 6.17188 33.6621 5.89453V5.77148C33.6621 5.49805 33.6348 5.24219 33.5801 5.00391C33.5254 4.76172 33.4395 4.54883 33.3223 4.36523C33.209 4.17773 33.0605 4.03125 32.877 3.92578C32.6973 3.81641 32.4805 3.76172 32.2266 3.76172C31.9766 3.76172 31.7617 3.81641 31.582 3.92578C31.4023 4.03125 31.2559 4.17773 31.1426 4.36523C31.0293 4.54883 30.9453 4.76172 30.8906 5.00391C30.8359 5.24219 30.8086 5.49805 30.8086 5.77148Z" fill="white"/>
<path d="M28.0605 2.66016V9H26.5078V2.66016H28.0605ZM26.4023 1.00195C26.4023 0.771484 26.4805 0.580078 26.6367 0.427734C26.7969 0.275391 27.0117 0.199219 27.2812 0.199219C27.5508 0.199219 27.7637 0.275391 27.9199 0.427734C28.0801 0.580078 28.1602 0.771484 28.1602 1.00195C28.1602 1.22852 28.0801 1.41797 27.9199 1.57031C27.7637 1.72266 27.5508 1.79883 27.2812 1.79883C27.0117 1.79883 26.7969 1.72266 26.6367 1.57031C26.4805 1.41797 26.4023 1.22852 26.4023 1.00195Z" fill="white"/>
<path d="M21.2344 0V9H19.6816V0H21.2344ZM20.9883 5.60156H20.5312C20.5312 5.16016 20.5898 4.75391 20.707 4.38281C20.8242 4.01172 20.9902 3.68945 21.2051 3.41602C21.4199 3.13867 21.6758 2.92383 21.9727 2.77148C22.2734 2.61914 22.6055 2.54297 22.9688 2.54297C23.2812 2.54297 23.5645 2.58789 23.8184 2.67773C24.0762 2.76367 24.2969 2.90234 24.4805 3.09375C24.6641 3.28516 24.8047 3.53516 24.9023 3.84375C25.0039 4.14844 25.0547 4.51953 25.0547 4.95703V9H23.4961V4.94531C23.4961 4.65234 23.4531 4.42188 23.3672 4.25391C23.2812 4.08203 23.1582 3.95898 22.998 3.88477C22.8418 3.81055 22.6484 3.77344 22.418 3.77344C22.168 3.77344 21.9531 3.82227 21.7734 3.91992C21.5938 4.01367 21.4453 4.14453 21.3281 4.3125C21.2148 4.48047 21.1289 4.67383 21.0703 4.89258C21.0156 5.11133 20.9883 5.34766 20.9883 5.60156Z" fill="white"/>
<path d="M17.0273 7.26562C17.0273 7.13281 16.9922 7.01367 16.9219 6.9082C16.8516 6.80273 16.7188 6.70703 16.5234 6.62109C16.332 6.53125 16.0508 6.44727 15.6797 6.36914C15.3516 6.29883 15.0488 6.21094 14.7715 6.10547C14.4941 6 14.2559 5.87305 14.0566 5.72461C13.8574 5.57227 13.7012 5.39453 13.5879 5.19141C13.4785 4.98438 13.4238 4.74609 13.4238 4.47656C13.4238 4.21484 13.4805 3.96875 13.5938 3.73828C13.707 3.50391 13.8711 3.29883 14.0859 3.12305C14.3008 2.94336 14.5625 2.80273 14.8711 2.70117C15.1797 2.5957 15.5273 2.54297 15.9141 2.54297C16.4531 2.54297 16.916 2.63086 17.3027 2.80664C17.6934 2.98242 17.9922 3.22461 18.1992 3.5332C18.4062 3.83789 18.5098 4.18164 18.5098 4.56445H16.9629C16.9629 4.39648 16.9238 4.24414 16.8457 4.10742C16.7715 3.9707 16.6562 3.86133 16.5 3.7793C16.3438 3.69336 16.1465 3.65039 15.9082 3.65039C15.6934 3.65039 15.5117 3.68555 15.3633 3.75586C15.2188 3.82617 15.1094 3.91797 15.0352 4.03125C14.9609 4.14453 14.9238 4.26953 14.9238 4.40625C14.9238 4.50781 14.9434 4.59961 14.9824 4.68164C15.0254 4.75977 15.0938 4.83203 15.1875 4.89844C15.2812 4.96484 15.4082 5.02539 15.5684 5.08008C15.7324 5.13477 15.9336 5.1875 16.1719 5.23828C16.6445 5.33203 17.0566 5.45703 17.4082 5.61328C17.7637 5.76562 18.041 5.96875 18.2402 6.22266C18.4395 6.47656 18.5391 6.80078 18.5391 7.19531C18.5391 7.47656 18.4785 7.73438 18.3574 7.96875C18.2363 8.19922 18.0605 8.40039 17.8301 8.57227C17.5996 8.74414 17.3242 8.87891 17.0039 8.97656C16.6836 9.07031 16.3223 9.11719 15.9199 9.11719C15.3379 9.11719 14.8457 9.01367 14.4434 8.80664C14.041 8.5957 13.7363 8.33008 13.5293 8.00977C13.3223 7.68555 13.2188 7.34961 13.2188 7.00195H14.7012C14.7129 7.24805 14.7793 7.44531 14.9004 7.59375C15.0215 7.74219 15.1738 7.84961 15.3574 7.91602C15.5449 7.97852 15.7422 8.00977 15.9492 8.00977C16.1836 8.00977 16.3809 7.97852 16.541 7.91602C16.7012 7.84961 16.8223 7.76172 16.9043 7.65234C16.9863 7.53906 17.0273 7.41016 17.0273 7.26562Z" fill="white"/>
<path d="M10.5879 7.65234V4.72852C10.5879 4.51367 10.5508 4.32812 10.4766 4.17188C10.4023 4.01562 10.2891 3.89453 10.1367 3.80859C9.98438 3.72266 9.79102 3.67969 9.55664 3.67969C9.34961 3.67969 9.16797 3.71484 9.01172 3.78516C8.85938 3.85547 8.74219 3.95508 8.66016 4.08398C8.57812 4.20898 8.53711 4.35352 8.53711 4.51758H6.98438C6.98438 4.25586 7.04688 4.00781 7.17188 3.77344C7.29688 3.53516 7.47461 3.32422 7.70508 3.14062C7.93945 2.95312 8.21875 2.80664 8.54297 2.70117C8.87109 2.5957 9.23828 2.54297 9.64453 2.54297C10.125 2.54297 10.5527 2.625 10.9277 2.78906C11.3066 2.94922 11.6035 3.19141 11.8184 3.51562C12.0371 3.83984 12.1465 4.24805 12.1465 4.74023V7.50586C12.1465 7.82227 12.166 8.09375 12.2051 8.32031C12.248 8.54297 12.3105 8.73633 12.3926 8.90039V9H10.8164C10.7422 8.83984 10.6855 8.63672 10.6465 8.39062C10.6074 8.14062 10.5879 7.89453 10.5879 7.65234ZM10.8047 5.13867L10.8164 6.05859H9.83789C9.5957 6.05859 9.38281 6.08398 9.19922 6.13477C9.01562 6.18164 8.86523 6.25195 8.74805 6.3457C8.63086 6.43555 8.54297 6.54492 8.48438 6.67383C8.42578 6.79883 8.39648 6.94141 8.39648 7.10156C8.39648 7.25781 8.43164 7.39844 8.50195 7.52344C8.57617 7.64844 8.68164 7.74805 8.81836 7.82227C8.95898 7.89258 9.12305 7.92773 9.31055 7.92773C9.58398 7.92773 9.82227 7.87305 10.0254 7.76367C10.2285 7.65039 10.3867 7.51367 10.5 7.35352C10.6133 7.19336 10.6738 7.04102 10.6816 6.89648L11.127 7.56445C11.0723 7.72461 10.9902 7.89453 10.8809 8.07422C10.7715 8.25391 10.6309 8.42188 10.459 8.57812C10.2871 8.73438 10.0801 8.86328 9.83789 8.96484C9.5957 9.06641 9.31445 9.11719 8.99414 9.11719C8.58398 9.11719 8.2168 9.03516 7.89258 8.87109C7.56836 8.70703 7.3125 8.48242 7.125 8.19727C6.9375 7.91211 6.84375 7.58789 6.84375 7.22461C6.84375 6.88867 6.90625 6.5918 7.03125 6.33398C7.15625 6.07617 7.3418 5.85938 7.58789 5.68359C7.83398 5.50391 8.13867 5.36914 8.50195 5.2793C8.86914 5.18555 9.28906 5.13867 9.76172 5.13867H10.8047Z" fill="white"/>
<path d="M2.42578 0.46875V9H0.814453V0.46875H2.42578ZM5.86523 4.1543V5.42578H2.00391V4.1543H5.86523ZM6.31641 0.46875V1.74023H2.00391V0.46875H6.31641Z" fill="white"/>
</svg>
